<?xml version="1.0" standalone="no"?>
<!DOCTYPE svg PUBLIC "-//W3C//DTD SVG 20010904//EN"
 "http://www.w3.org/TR/2001/REC-SVG-20010904/DTD/svg10.dtd">
<svg version="1.0" xmlns="http://www.w3.org/2000/svg"
 width="144.000000pt" height="144.000000pt" viewBox="0 0 144.000000 144.000000"
 preserveAspectRatio="xMidYMid meet">
<metadata>
Created by potrace 1.11, written by Peter Selinger 2001-2013
</metadata>
<g transform="translate(0.000000,144.000000) scale(0.100000,-0.100000)"
fill="#000000" stroke="none">
<path d="M699 1436 c-2 -2 -26 -6 -54 -9 -63 -7 -102 -20 -191 -63 -173 -83
-305 -273 -318 -458 -3 -49 0 -57 35 -104 22 -28 39 -55 39 -61 0 -5 3 -11 8
-13 11 -5 212 -305 212 -317 0 -5 6 -14 13 -18 7 -4 37 -46 67 -93 30 -47 57
-87 60 -90 3 -3 29 -41 58 -85 56 -86 91 -130 96 -124 1 2 41 60 87 129 46 69
87 127 92 128 4 2 7 7 7 11 0 5 34 58 75 120 41 61 75 115 75 120 0 5 3 11 8
13 4 2 25 30 47 63 22 33 73 106 113 162 55 79 72 111 72 137 0 66 -21 142
-60 221 -90 181 -265 304 -460 321 -36 4 -68 8 -71 10 -3 2 -8 2 -10 0z m-386
-534 c9 -8 17 -21 17 -28 0 -7 6 -19 14 -26 19 -19 66 -114 66 -133 0 -8 4
-15 8 -15 4 0 14 -20 21 -45 7 -25 17 -45 22 -45 5 0 8 -3 7 -7 -3 -10 10 -48
34 -103 27 -60 48 -110 58 -135 4 -11 24 -60 44 -109 20 -49 35 -91 32 -93 -4
-4 -404 595 -434 651 -11 21 -18 45 -15 55 21 58 80 73 126 33z m243 -27 c7
-18 18 -35 24 -37 11 -3 13 -9 25 -103 3 -27 8 -61 10 -75 2 -14 7 -51 10 -83
4 -32 8 -68 11 -80 2 -12 6 -40 9 -62 3 -22 7 -51 10 -65 5 -31 17 -125 20
-167 3 -38 -10 -44 -20 -10 -3 12 -10 31 -16 42 -17 37 -121 289 -151 365 -81
208 -88 231 -78 251 6 10 8 19 4 19 -13 0 31 42 51 50 33 12 76 -9 91 -45z
m192 41 c43 -22 66 -85 57 -159 -3 -34 -8 -75 -10 -92 -2 -16 -6 -46 -10 -65
-3 -19 -8 -55 -11 -80 -2 -25 -6 -58 -9 -75 -2 -16 -7 -50 -10 -75 -3 -25 -7
-54 -10 -66 -2 -11 -7 -45 -11 -75 -4 -30 -10 -63 -15 -74 -7 -18 -8 -18 -10
5 -2 34 -5 58 -13 105 -4 22 -9 60 -12 85 -3 25 -7 52 -9 60 -2 8 -7 38 -10
65 -3 28 -8 66 -11 85 -3 19 -7 51 -9 70 -3 19 -7 55 -10 80 -14 109 -13 117
9 156 12 21 33 44 46 51 31 16 26 16 58 -1z m236 -1 c23 -10 56 -85 46 -105
-9 -18 -15 -31 -75 -185 -26 -66 -56 -139 -66 -162 -11 -23 -19 -45 -19 -48 0
-3 -11 -30 -24 -58 -13 -29 -26 -62 -30 -75 -4 -13 -21 -51 -37 -85 -31 -68
-31 -69 -4 128 12 87 18 134 21 160 1 17 3 30 4 30 1 0 3 11 5 25 7 62 18 147
21 165 6 31 17 109 17 122 0 7 9 15 19 19 10 3 16 9 13 14 -3 5 6 22 20 38 25
30 46 34 89 17z m225 0 c16 -8 31 -22 35 -31 7 -17 -10 -79 -26 -98 -5 -6 -69
-103 -143 -216 -73 -113 -138 -210 -144 -217 -6 -7 -11 -17 -11 -23 0 -5 -4
-10 -9 -10 -5 0 -14 -14 -21 -30 -7 -17 -18 -34 -24 -38 -6 -4 -19 -20 -28
-37 -34 -60 -36 -34 -3 47 221 554 271 652 343 667 2 1 16 -6 31 -14z m-399
-749 c0 -2 -7 -9 -15 -16 -13 -11 -14 -10 -9 4 5 14 24 23 24 12z"/>
</g>
</svg>
